<?xml version="1.0" encoding="UTF-8" standalone="no"?>
<!-- Created with Inkscape (http://www.inkscape.org/) -->

<svg
   xmlns:dc="http://purl.org/dc/elements/1.1/"
   xmlns:cc="http://creativecommons.org/ns#"
   xmlns:rdf="http://www.w3.org/1999/02/22-rdf-syntax-ns#"
   xmlns:svg="http://www.w3.org/2000/svg"
   xmlns="http://www.w3.org/2000/svg"
   xmlns:sodipodi="http://sodipodi.sourceforge.net/DTD/sodipodi-0.dtd"
   xmlns:inkscape="http://www.inkscape.org/namespaces/inkscape"
   id="svg18503"
   version="1.1"
   inkscape:version="0.48.5 r10040"
   width="114.68493"
   height="149.55615"
   xml:space="preserve"
   sodipodi:docname="image32.pdf"><metadata
     id="metadata18509"><rdf:RDF><cc:Work
         rdf:about=""><dc:format>image/svg+xml</dc:format><dc:type
           rdf:resource="http://purl.org/dc/dcmitype/StillImage" /><dc:title></dc:title></cc:Work></rdf:RDF></metadata><defs
     id="defs18507" /><sodipodi:namedview
     pagecolor="#ffffff"
     bordercolor="#666666"
     borderopacity="1"
     objecttolerance="10"
     gridtolerance="10"
     guidetolerance="10"
     inkscape:pageopacity="0"
     inkscape:pageshadow="2"
     inkscape:window-width="1920"
     inkscape:window-height="1018"
     id="namedview18505"
     showgrid="false"
     fit-margin-top="5"
     fit-margin-left="5"
     fit-margin-right="5"
     fit-margin-bottom="5"
     inkscape:zoom="2.983379"
     inkscape:cx="-17.821223"
     inkscape:cy="125.90985"
     inkscape:window-x="-8"
     inkscape:window-y="-8"
     inkscape:window-maximized="1"
     inkscape:current-layer="g18513" /><g
     id="g18511"
     inkscape:groupmode="layer"
     inkscape:label="image32"
     transform="matrix(1.25,0,0,-1.25,-0.00125,111.87127)"><g
       id="g18513"><g
         id="g18515"
         transform="matrix(1,0,0,-1,0,89.497017)"><path
           d="m 82.035,47.813 c 0,20.589 -16.695,37.285 -37.285,37.285 -20.594,0 -37.285,-16.696 -37.285,-37.285 0,-20.594 16.691,-37.286 37.285,-37.286 20.59,0 37.285,16.692 37.285,37.286 z"
           style="fill:#ffffff;fill-opacity:1;fill-rule:nonzero;stroke:#000000;stroke-width:0.80000001;stroke-linecap:butt;stroke-linejoin:miter;stroke-miterlimit:4;stroke-opacity:1;stroke-dasharray:none"
           id="path18517"
           inkscape:connector-curvature="0" /></g><g
         id="g18519"
         transform="matrix(1,0,0,-1,0,89.497017)"><path
           d="m 28.25,10.375 5.43,0 0,5.43 -5.43,0 0,-5.43 z"
           style="fill:#ffffff;fill-opacity:1;fill-rule:nonzero;stroke:#000000;stroke-width:0.56;stroke-linecap:butt;stroke-linejoin:miter;stroke-miterlimit:4;stroke-opacity:1;stroke-dasharray:none"
           id="path18521"
           inkscape:connector-curvature="0" /></g><g
         id="g18523"
         transform="matrix(1,0,0,-1,0,89.497017)"><path
           d="m 62.996,15.023 5.43,0 0,5.426 -5.43,0 0,-5.426 z"
           style="fill:#ffffff;fill-opacity:1;fill-rule:nonzero;stroke:#000000;stroke-width:0.56;stroke-linecap:butt;stroke-linejoin:miter;stroke-miterlimit:4;stroke-opacity:1;stroke-dasharray:none"
           id="path18525"
           inkscape:connector-curvature="0" /></g><g
         id="g18527"
         transform="matrix(1,0,0,-1,0,89.497017)"><path
           d="m 79.527,42.176 5.43,0 0,5.43 -5.43,0 0,-5.43 z"
           style="fill:#ffffff;fill-opacity:1;fill-rule:nonzero;stroke:#000000;stroke-width:0.56;stroke-linecap:butt;stroke-linejoin:miter;stroke-miterlimit:4;stroke-opacity:1;stroke-dasharray:none"
           id="path18529"
           inkscape:connector-curvature="0" /></g><g
         id="g18535"
         transform="matrix(1,0,0,-1,0,89.497017)"><path
           d="m 64.41,75.016 5.43,0 0,5.43 -5.43,0 0,-5.43 z"
           style="fill:#ffffff;fill-opacity:1;fill-rule:nonzero;stroke:#000000;stroke-width:0.56;stroke-linecap:butt;stroke-linejoin:miter;stroke-miterlimit:4;stroke-opacity:1;stroke-dasharray:none"
           id="path18537"
           inkscape:connector-curvature="0" /></g><g
         id="g18539"
         transform="matrix(1,0,0,-1,0,89.497017)"><path
           d="m 4.281,42.176 5.426,0 0,5.43 -5.426,0 0,-5.43 z"
           style="fill:#ffffff;fill-opacity:1;fill-rule:nonzero;stroke:#000000;stroke-width:0.56;stroke-linecap:butt;stroke-linejoin:miter;stroke-miterlimit:4;stroke-opacity:1;stroke-dasharray:none"
           id="path18541"
           inkscape:connector-curvature="0" /></g><g
         id="g18543"
         transform="matrix(1,0,0,-1,0,89.497017)"><path
           d="m 61.418,10.781 1.516,4.344 -4.344,0.605"
           style="fill:none;stroke:#000000;stroke-width:0.80000001;stroke-linecap:butt;stroke-linejoin:miter;stroke-miterlimit:4;stroke-opacity:1;stroke-dasharray:none"
           id="path18545"
           inkscape:connector-curvature="0" /></g><g
         id="g18547"
         transform="matrix(1,0,0,-1,0,89.497017)"><path
           d="m 83.336,37.348 -1.715,4.445 -4.043,-3.836"
           style="fill:none;stroke:#000000;stroke-width:0.80000001;stroke-linecap:butt;stroke-linejoin:miter;stroke-miterlimit:4;stroke-opacity:1;stroke-dasharray:none"
           id="path18549"
           inkscape:connector-curvature="0" /></g><g
         id="g18551"
         transform="matrix(1,0,0,-1,0,89.497017)"><path
           d="m 75.156,73.918 -4.949,1.211 0.809,-3.941"
           style="fill:none;stroke:#000000;stroke-width:0.80000001;stroke-linecap:butt;stroke-linejoin:miter;stroke-miterlimit:4;stroke-opacity:1;stroke-dasharray:none"
           id="path18553"
           inkscape:connector-curvature="0" /></g><rect
         style="fill:#ffffff;fill-opacity:1;stroke:none"
         id="rect19101"
         width="12.335006"
         height="14.077997"
         x="5.2289701"
         y="-41.56361"
         transform="scale(1,-1)" /><g
         id="g18559"
         transform="matrix(0.69465835,0.7193398,0.7193398,-0.69465835,-32.804179,69.321662)"><path
           d="m 5.758,51.492 1.617,-3.535 2.324,3.332"
           style="fill:none;stroke:#000000;stroke-width:0.80000001;stroke-linecap:butt;stroke-linejoin:miter;stroke-miterlimit:4;stroke-opacity:1;stroke-dasharray:none"
           id="path18561"
           inkscape:connector-curvature="0" /></g><g
         id="g18563"
         transform="matrix(1,0,0,-1,0,89.497017)"><path
           d="m 24.145,14.215 3.835,0.305 -2.019,4.039"
           style="fill:none;stroke:#000000;stroke-width:0.80000001;stroke-linecap:butt;stroke-linejoin:miter;stroke-miterlimit:4;stroke-opacity:1;stroke-dasharray:none"
           id="path18565"
           inkscape:connector-curvature="0" /></g><text
         transform="matrix(1,0,0,-1,54.61132,82.002486)"
         id="text18567"><tspan
           style="font-size:4.80000019px;font-variant:normal;font-weight:normal;writing-mode:lr-tb;fill:#000000;fill-opacity:1;fill-rule:nonzero;stroke:none;font-family:Arial;-inkscape-font-specification:ArialMT"
           x="0 3.1968 4.5264001 7.1952 9.5951996 10.6608 13.3296 14.6592 18.6576 21.340799 24.0096 25.075199 26.4048 29.073601 30.672001"
           y="0"
           sodipodi:role="line"
           id="tspan18569">Stacja monitora</tspan><tspan
           style="font-size:4.80000019px;font-variant:normal;font-weight:normal;writing-mode:lr-tb;fill:#000000;fill-opacity:1;fill-rule:nonzero;stroke:none;font-family:Arial;-inkscape-font-specification:ArialMT"
           x="13.082813 14.681212 18.679613"
           y="6"
           sodipodi:role="line"
           id="tspan18571">(M)</tspan></text>
<rect
         style="fill:#ffffff;fill-opacity:1;stroke:#000000;stroke-width:0.80000001;stroke-miterlimit:4;stroke-opacity:1;stroke-dasharray:none;stroke-dashoffset:0"
         id="rect19081"
         width="10.457941"
         height="10.457941"
         x="34.189419"
         y="-11.262397"
         transform="scale(1,-1)" /><path
         style="fill:none;stroke:#000000;stroke-width:1px;stroke-linecap:butt;stroke-linejoin:miter;stroke-opacity:1"
         d="m 59.66389,103.49151 -3.687094,2.68152 3.854689,2.68153"
         id="path19083"
         inkscape:connector-curvature="0"
         transform="matrix(0.8,0,0,-0.8,0,89.497016)" /><text
         xml:space="preserve"
         style="font-size:6.4000001px;font-style:normal;font-weight:normal;line-height:125%;letter-spacing:0px;word-spacing:0px;fill:#000000;fill-opacity:1;stroke:none;font-family:Sans"
         x="31.507898"
         y="-13.675768"
         id="text19085"
         sodipodi:linespacing="125%"
         transform="scale(1,-1)"><tspan
           sodipodi:role="line"
           id="tspan19087"
           x="31.507898"
           y="-13.675768"
           style="font-size:3.20000005px">przerzutnik</tspan></text>
<text
         xml:space="preserve"
         style="font-size:3.20000005px;font-style:normal;font-weight:normal;line-height:125%;letter-spacing:0px;word-spacing:0px;fill:#000000;fill-opacity:1;stroke:none;font-family:Sans"
         x="36.075401"
         y="-7.5082641"
         id="text19089"
         sodipodi:linespacing="125%"
         transform="scale(1,-1)"><tspan
           sodipodi:role="line"
           id="tspan19091"
           x="36.075401"
           y="-7.5082641">c    d</tspan></text>
<rect
         style="fill:#ffffff;fill-opacity:1;stroke:none"
         id="rect19093"
         width="30.502325"
         height="31.172707"
         x="5.1954513"
         y="73.994751"
         transform="matrix(0.8,0,0,-0.8,0,89.497016)" /><path
         style="fill:none;stroke:#000000;stroke-width:2;stroke-linecap:butt;stroke-linejoin:miter;stroke-miterlimit:4;stroke-opacity:1;stroke-dasharray:none"
         d="m 27.988398,86.899585 0,17.597495"
         id="path19095"
         inkscape:connector-curvature="0"
         transform="matrix(0.8,0,0,-0.8,0,89.497016)" /><path
         inkscape:connector-curvature="0"
         id="path19097"
         d="m 16.75952,19.977348 0,-14.077996"
         style="fill:none;stroke:#000000;stroke-width:1.60000002;stroke-linecap:butt;stroke-linejoin:miter;stroke-miterlimit:4;stroke-opacity:1;stroke-dasharray:none" /><path
         style="fill:none;stroke:#000000;stroke-width:1px;stroke-linecap:butt;stroke-linejoin:miter;stroke-opacity:1"
         d="M 21.61978,95.44694 C -0.33519067,94.776559 27.150422,74.722086 9.217736,60.587139"
         id="path19099"
         inkscape:connector-curvature="0"
         sodipodi:nodetypes="cc"
         transform="matrix(0.8,0,0,-0.8,0,89.497016)" /><text
         xml:space="preserve"
         style="font-size:3.20000005px;font-style:normal;font-weight:normal;line-height:125%;letter-spacing:0px;word-spacing:0px;fill:#000000;fill-opacity:1;stroke:none;font-family:Sans"
         x="13.809843"
         y="-21.988493"
         id="text19103"
         sodipodi:linespacing="125%"
         transform="scale(1,-1)"><tspan
           sodipodi:role="line"
           id="tspan19105"
           x="13.809843"
           y="-21.988493">Nadawca ?</tspan></text>
<text
         transform="scale(1,-1)"
         sodipodi:linespacing="125%"
         id="text19107"
         y="-1.3407646"
         x="52.557854"
         style="font-size:3.20000005px;font-style:normal;font-weight:normal;line-height:125%;letter-spacing:0px;word-spacing:0px;fill:#000000;fill-opacity:1;stroke:none;font-family:Sans"
         xml:space="preserve"><tspan
           y="-1.3407646"
           x="52.557854"
           id="tspan19109"
           sodipodi:role="line">Odbiorca ?</tspan></text>
<rect
         style="fill:#ffffff;fill-opacity:1;stroke:none"
         id="rect19111"
         width="10.223307"
         height="16.591925"
         x="32.010681"
         y="98.463654"
         transform="matrix(0.8,0,0,-0.8,0,89.497016)" /><path
         style="fill:none;stroke:#000000;stroke-width:1px;stroke-linecap:butt;stroke-linejoin:miter;stroke-opacity:1"
         d="m 42.56918,106.17303 c -7.206593,3.68709 -1.675952,-10.3909 -13.910401,-10.3909"
         id="path19113"
         inkscape:connector-curvature="0"
         transform="matrix(0.8,0,0,-0.8,0,89.497016)"
         sodipodi:nodetypes="cc" /><path
         style="fill:none;stroke:#000000;stroke-width:1px;stroke-linecap:butt;stroke-linejoin:miter;stroke-opacity:1"
         d="m 33.925995,93.057312 -4.42924,2.557223 3.016713,3.519499"
         id="path19115"
         inkscape:connector-curvature="0"
         transform="matrix(0.8,0,0,-0.8,0,89.497016)" /><rect
         style="fill:#ffffff;fill-opacity:1;stroke:#000000;stroke-opacity:1"
         id="rect19117"
         width="33.016254"
         height="11.396474"
         x="32.178276"
         y="126.61964"
         transform="matrix(0.8,0,0,-0.8,0,89.497016)" /><text
         xml:space="preserve"
         style="font-size:3.20000005px;font-style:normal;font-weight:normal;line-height:125%;letter-spacing:0px;word-spacing:0px;fill:#000000;fill-opacity:1;stroke:none;font-family:Sans"
         x="25.876699"
         y="25.474466"
         id="text19119"
         sodipodi:linespacing="125%"
         transform="scale(1,-1)"><tspan
           sodipodi:role="line"
           id="tspan19121"
           x="25.876699"
           y="25.474466">Rejestr przesuwny</tspan></text>
<path
         style="fill:none;stroke:#000000;stroke-width:1px;stroke-linecap:butt;stroke-linejoin:miter;stroke-opacity:1"
         d="m 55.809201,109.86013 c 15.753949,-0.50279 23.295732,33.18385 9.720521,25.47447"
         id="path19123"
         inkscape:connector-curvature="0"
         transform="matrix(0.8,0,0,-0.8,0,89.497016)"
         sodipodi:nodetypes="cc" /><path
         style="fill:none;stroke:#000000;stroke-width:1px;stroke-linecap:butt;stroke-linejoin:miter;stroke-opacity:1"
         d="M 42.736776,109.35735 C 36.703349,111.70368 13.072425,135.167 31.843087,133.65864"
         id="path19125"
         inkscape:connector-curvature="0"
         transform="matrix(0.8,0,0,-0.8,0,89.497016)"
         sodipodi:nodetypes="cc" /><path
         style="fill:none;stroke:#000000;stroke-width:1px;stroke-linecap:butt;stroke-linejoin:miter;stroke-opacity:1"
         d="m 68.378841,134.49662 -3.016714,0.83798 2.178738,3.68709"
         id="path19127"
         inkscape:connector-curvature="0"
         transform="matrix(0.8,0,0,-0.8,0,89.497016)" /><path
         style="fill:none;stroke:#000000;stroke-width:1px;stroke-linecap:butt;stroke-linejoin:miter;stroke-opacity:1"
         d="m 38.3793,109.18975 3.85469,0.33519 -2.011143,4.52507"
         id="path19129"
         inkscape:connector-curvature="0"
         transform="matrix(0.8,0,0,-0.8,0,89.497016)" /></g></g></svg>