<?xml version="1.0" encoding="UTF-8" standalone="no"?>
<!-- Created with Inkscape (http://www.inkscape.org/) -->

<svg
   xmlns:dc="http://purl.org/dc/elements/1.1/"
   xmlns:cc="http://creativecommons.org/ns#"
   xmlns:rdf="http://www.w3.org/1999/02/22-rdf-syntax-ns#"
   xmlns:svg="http://www.w3.org/2000/svg"
   xmlns="http://www.w3.org/2000/svg"
   xmlns:sodipodi="http://sodipodi.sourceforge.net/DTD/sodipodi-0.dtd"
   xmlns:inkscape="http://www.inkscape.org/namespaces/inkscape"
   width="438.77737"
   height="308.45654"
   id="svg13310"
   version="1.1"
   inkscape:version="0.48.5 r10040"
   sodipodi:docname="Nowy dokument 81">
  <defs
     id="defs13312">
    <marker
       inkscape:stockid="Arrow1Lstart"
       orient="auto"
       refY="0"
       refX="0"
       id="Arrow1Lstart"
       style="overflow:visible">
      <path
         id="path3849"
         d="M 0,0 5,-5 -12.5,0 5,5 0,0 z"
         style="fill-rule:evenodd;stroke:#000000;stroke-width:1pt"
         transform="matrix(0.8,0,0,0.8,10,0)"
         inkscape:connector-curvature="0" />
    </marker>
    <marker
       inkscape:stockid="DotM"
       orient="auto"
       refY="0"
       refX="0"
       id="DotM"
       style="overflow:visible">
      <path
         id="path3913"
         d="m -2.5,-1 c 0,2.76 -2.24,5 -5,5 -2.76,0 -5,-2.24 -5,-5 0,-2.76 2.24,-5 5,-5 2.76,0 5,2.24 5,5 z"
         style="fill-rule:evenodd;stroke:#000000;stroke-width:1pt"
         transform="matrix(0.4,0,0,0.4,2.96,0.4)"
         inkscape:connector-curvature="0" />
    </marker>
    <marker
       inkscape:stockid="Arrow1Lend"
       orient="auto"
       refY="0"
       refX="0"
       id="Arrow1Lend"
       style="overflow:visible">
      <path
         id="path3852"
         d="M 0,0 5,-5 -12.5,0 5,5 0,0 z"
         style="fill-rule:evenodd;stroke:#000000;stroke-width:1pt"
         transform="matrix(-0.8,0,0,-0.8,-10,0)"
         inkscape:connector-curvature="0" />
    </marker>
    <marker
       inkscape:stockid="DotS"
       orient="auto"
       refY="0"
       refX="0"
       id="DotS"
       style="overflow:visible">
      <path
         id="path3916"
         d="m -2.5,-1 c 0,2.76 -2.24,5 -5,5 -2.76,0 -5,-2.24 -5,-5 0,-2.76 2.24,-5 5,-5 2.76,0 5,2.24 5,5 z"
         style="fill-rule:evenodd;stroke:#000000;stroke-width:1pt"
         transform="matrix(0.2,0,0,0.2,1.48,0.2)"
         inkscape:connector-curvature="0" />
    </marker>
    <marker
       inkscape:stockid="DotM"
       orient="auto"
       refY="0"
       refX="0"
       id="DotM-6"
       style="overflow:visible">
      <path
         inkscape:connector-curvature="0"
         id="path3913-2"
         d="m -2.5,-1 c 0,2.76 -2.24,5 -5,5 -2.76,0 -5,-2.24 -5,-5 0,-2.76 2.24,-5 5,-5 2.76,0 5,2.24 5,5 z"
         style="fill-rule:evenodd;stroke:#000000;stroke-width:1pt"
         transform="matrix(0.4,0,0,0.4,2.96,0.4)" />
    </marker>
    <marker
       inkscape:stockid="Arrow1Lend"
       orient="auto"
       refY="0"
       refX="0"
       id="Arrow1Lend-9"
       style="overflow:visible">
      <path
         inkscape:connector-curvature="0"
         id="path3852-1"
         d="M 0,0 5,-5 -12.5,0 5,5 0,0 z"
         style="fill-rule:evenodd;stroke:#000000;stroke-width:1pt"
         transform="matrix(-0.8,0,0,-0.8,-10,0)" />
    </marker>
    <marker
       inkscape:stockid="Arrow1Lstart"
       orient="auto"
       refY="0"
       refX="0"
       id="Arrow1Lstart-4"
       style="overflow:visible">
      <path
         inkscape:connector-curvature="0"
         id="path3849-9"
         d="M 0,0 5,-5 -12.5,0 5,5 0,0 z"
         style="fill-rule:evenodd;stroke:#000000;stroke-width:1pt"
         transform="matrix(0.8,0,0,0.8,10,0)" />
    </marker>
    <marker
       inkscape:stockid="DotS"
       orient="auto"
       refY="0"
       refX="0"
       id="DotS-2"
       style="overflow:visible">
      <path
         inkscape:connector-curvature="0"
         id="path3916-9"
         d="m -2.5,-1 c 0,2.76 -2.24,5 -5,5 -2.76,0 -5,-2.24 -5,-5 0,-2.76 2.24,-5 5,-5 2.76,0 5,2.24 5,5 z"
         style="fill-rule:evenodd;stroke:#000000;stroke-width:1pt"
         transform="matrix(0.2,0,0,0.2,1.48,0.2)" />
    </marker>
    <marker
       inkscape:stockid="DotM"
       orient="auto"
       refY="0"
       refX="0"
       id="DotM-6-7"
       style="overflow:visible">
      <path
         inkscape:connector-curvature="0"
         id="path3913-2-5"
         d="m -2.5,-1 c 0,2.76 -2.24,5 -5,5 -2.76,0 -5,-2.24 -5,-5 0,-2.76 2.24,-5 5,-5 2.76,0 5,2.24 5,5 z"
         style="fill-rule:evenodd;stroke:#000000;stroke-width:1pt"
         transform="matrix(0.4,0,0,0.4,2.96,0.4)" />
    </marker>
    <marker
       inkscape:stockid="Arrow1Lend"
       orient="auto"
       refY="0"
       refX="0"
       id="Arrow1Lend-9-8"
       style="overflow:visible">
      <path
         inkscape:connector-curvature="0"
         id="path3852-1-1"
         d="M 0,0 5,-5 -12.5,0 5,5 0,0 z"
         style="fill-rule:evenodd;stroke:#000000;stroke-width:1pt"
         transform="matrix(-0.8,0,0,-0.8,-10,0)" />
    </marker>
    <marker
       inkscape:stockid="DotM"
       orient="auto"
       refY="0"
       refX="0"
       id="DotM-6-5"
       style="overflow:visible">
      <path
         inkscape:connector-curvature="0"
         id="path3913-2-7"
         d="m -2.5,-1 c 0,2.76 -2.24,5 -5,5 -2.76,0 -5,-2.24 -5,-5 0,-2.76 2.24,-5 5,-5 2.76,0 5,2.24 5,5 z"
         style="fill-rule:evenodd;stroke:#000000;stroke-width:1pt"
         transform="matrix(0.4,0,0,0.4,2.96,0.4)" />
    </marker>
    <marker
       inkscape:stockid="Arrow1Lend"
       orient="auto"
       refY="0"
       refX="0"
       id="Arrow1Lend-9-4"
       style="overflow:visible">
      <path
         inkscape:connector-curvature="0"
         id="path3852-1-4"
         d="M 0,0 5,-5 -12.5,0 5,5 0,0 z"
         style="fill-rule:evenodd;stroke:#000000;stroke-width:1pt"
         transform="matrix(-0.8,0,0,-0.8,-10,0)" />
    </marker>
    <marker
       inkscape:stockid="DotM"
       orient="auto"
       refY="0"
       refX="0"
       id="DotM-6-4"
       style="overflow:visible">
      <path
         inkscape:connector-curvature="0"
         id="path3913-2-4"
         d="m -2.5,-1 c 0,2.76 -2.24,5 -5,5 -2.76,0 -5,-2.24 -5,-5 0,-2.76 2.24,-5 5,-5 2.76,0 5,2.24 5,5 z"
         style="fill-rule:evenodd;stroke:#000000;stroke-width:1pt"
         transform="matrix(0.4,0,0,0.4,2.96,0.4)" />
    </marker>
    <marker
       inkscape:stockid="Arrow1Lend"
       orient="auto"
       refY="0"
       refX="0"
       id="Arrow1Lend-9-2"
       style="overflow:visible">
      <path
         inkscape:connector-curvature="0"
         id="path3852-1-9"
         d="M 0,0 5,-5 -12.5,0 5,5 0,0 z"
         style="fill-rule:evenodd;stroke:#000000;stroke-width:1pt"
         transform="matrix(-0.8,0,0,-0.8,-10,0)" />
    </marker>
    <marker
       inkscape:stockid="DotM"
       orient="auto"
       refY="0"
       refX="0"
       id="DotM-5"
       style="overflow:visible">
      <path
         inkscape:connector-curvature="0"
         id="path3913-3"
         d="m -2.5,-1 c 0,2.76 -2.24,5 -5,5 -2.76,0 -5,-2.24 -5,-5 0,-2.76 2.24,-5 5,-5 2.76,0 5,2.24 5,5 z"
         style="fill-rule:evenodd;stroke:#000000;stroke-width:1pt"
         transform="matrix(0.4,0,0,0.4,2.96,0.4)" />
    </marker>
    <marker
       inkscape:stockid="Arrow1Lend"
       orient="auto"
       refY="0"
       refX="0"
       id="Arrow1Lend-4"
       style="overflow:visible">
      <path
         inkscape:connector-curvature="0"
         id="path3852-3"
         d="M 0,0 5,-5 -12.5,0 5,5 0,0 z"
         style="fill-rule:evenodd;stroke:#000000;stroke-width:1pt"
         transform="matrix(-0.8,0,0,-0.8,-10,0)" />
    </marker>
  </defs>
  <sodipodi:namedview
     id="base"
     pagecolor="#ffffff"
     bordercolor="#666666"
     borderopacity="1.0"
     inkscape:pageopacity="0.0"
     inkscape:pageshadow="2"
     inkscape:zoom="0.98994949"
     inkscape:cx="-172.65059"
     inkscape:cy="303.68511"
     inkscape:document-units="px"
     inkscape:current-layer="layer1"
     showgrid="false"
     fit-margin-left="5"
     fit-margin-top="5"
     fit-margin-right="5"
     fit-margin-bottom="5"
     inkscape:window-width="1920"
     inkscape:window-height="1018"
     inkscape:window-x="-8"
     inkscape:window-y="-8"
     inkscape:window-maximized="1" />
  <metadata
     id="metadata13315">
    <rdf:RDF>
      <cc:Work
         rdf:about="">
        <dc:format>image/svg+xml</dc:format>
        <dc:type
           rdf:resource="http://purl.org/dc/dcmitype/StillImage" />
        <dc:title></dc:title>
      </cc:Work>
    </rdf:RDF>
  </metadata>
  <g
     inkscape:label="Layer 1"
     inkscape:groupmode="layer"
     id="layer1"
     transform="translate(-33.744377,-103.45549)">
    <rect
       style="fill:#ffffff;fill-opacity:1;stroke:#000000;stroke-width:0.57216936;stroke-miterlimit:4;stroke-opacity:1;stroke-dasharray:none"
       id="rect13318"
       width="53.455391"
       height="36.274086"
       x="133.98808"
       y="108.74158" />
    <text
       xml:space="preserve"
       style="font-size:12px;font-style:normal;font-weight:normal;line-height:125%;letter-spacing:0px;word-spacing:0px;fill:#000000;fill-opacity:1;stroke:none;font-family:Sans"
       x="144.28571"
       y="131.6479"
       id="text13828"
       sodipodi:linespacing="125%"><tspan
         sodipodi:role="line"
         id="tspan13830"
         x="144.28571"
         y="131.6479"
         style="font-size:16px">N(R)</tspan></text>
    <path
       style="fill:none;stroke:#000000;stroke-width:1px;stroke-linecap:butt;stroke-linejoin:miter;stroke-opacity:1;marker-start:url(#DotM);marker-end:url(#Arrow1Lend)"
       d="m 100.71429,125.93361 27.14285,0"
       id="path13832"
       inkscape:connector-curvature="0" />
    <text
       xml:space="preserve"
       style="font-size:12px;font-style:normal;font-weight:normal;line-height:125%;letter-spacing:0px;word-spacing:0px;fill:#000000;fill-opacity:1;stroke:none;font-family:Sans"
       x="67.91629"
       y="116.6479"
       id="text14758"
       sodipodi:linespacing="125%"><tspan
         sodipodi:role="line"
         id="tspan14760"
         x="67.91629"
         y="116.6479"
         style="font-size:10px;text-align:center;text-anchor:middle">Licznik</tspan><tspan
         sodipodi:role="line"
         x="67.91629"
         y="129.1479"
         id="tspan14762"
         style="font-size:10px;text-align:center;text-anchor:middle">ramek</tspan><tspan
         sodipodi:role="line"
         x="67.91629"
         y="141.6479"
         id="tspan14764"
         style="font-size:10px;text-align:center;text-anchor:middle">odebranych</tspan></text>
    <rect
       style="fill:#ffffff;fill-opacity:1;stroke:#000000;stroke-width:1.10866451;stroke-miterlimit:4;stroke-opacity:1;stroke-dasharray:none"
       id="rect13318-2"
       width="200.69781"
       height="36.274086"
       x="133.96356"
       y="176.40045" />
    <text
       xml:space="preserve"
       style="font-size:12px;font-style:normal;font-weight:normal;line-height:125%;letter-spacing:0px;word-spacing:0px;fill:#000000;fill-opacity:1;stroke:none;font-family:Sans"
       x="144.26118"
       y="199.30678"
       id="text13828-1"
       sodipodi:linespacing="125%"><tspan
         sodipodi:role="line"
         id="tspan13830-4"
         x="144.26118"
         y="199.30678"
         style="font-size:16px">Bufor odbieranych ramek</tspan></text>
    <rect
       style="fill:#ffffff;fill-opacity:1;stroke:#000000;stroke-width:0.57216936;stroke-miterlimit:4;stroke-opacity:1;stroke-dasharray:none"
       id="rect13318-5"
       width="53.455391"
       height="36.274086"
       x="378.72116"
       y="176.22681" />
    <text
       xml:space="preserve"
       style="font-size:12px;font-style:normal;font-weight:normal;line-height:125%;letter-spacing:0px;word-spacing:0px;fill:#000000;fill-opacity:1;stroke:none;font-family:Sans"
       x="398.3045"
       y="199.13313"
       id="text13828-0"
       sodipodi:linespacing="125%"><tspan
         sodipodi:role="line"
         id="tspan13830-3"
         x="398.3045"
         y="199.13313"
         style="font-size:16px">O</tspan></text>
    <path
       style="fill:none;stroke:#000000;stroke-width:1px;stroke-linecap:butt;stroke-linejoin:miter;stroke-opacity:1;marker-start:url(#Arrow1Lstart);marker-end:url(#DotS)"
       d="m 345.44738,193.41885 27.14285,0"
       id="path13832-6"
       inkscape:connector-curvature="0" />
    <text
       xml:space="preserve"
       style="font-size:12px;font-style:normal;font-weight:normal;line-height:125%;letter-spacing:0px;word-spacing:0px;fill:#000000;fill-opacity:1;stroke:none;font-family:Sans"
       x="385"
       y="170.93359"
       id="text15416"
       sodipodi:linespacing="125%"><tspan
         sodipodi:role="line"
         id="tspan15418"
         x="385"
         y="170.93359"
         style="font-size:10px">Odbiornik</tspan></text>
    <rect
       style="fill:#ffffff;fill-opacity:1;stroke:#000000;stroke-width:1.10866451;stroke-miterlimit:4;stroke-opacity:1;stroke-dasharray:none"
       id="rect13318-2-3"
       width="200.69781"
       height="36.274086"
       x="133.84515"
       y="245.77957" />
    <text
       xml:space="preserve"
       style="font-size:12px;font-style:normal;font-weight:normal;line-height:125%;letter-spacing:0px;word-spacing:0px;fill:#000000;fill-opacity:1;stroke:none;font-family:Sans"
       x="232.03748"
       y="260.09961"
       id="text13828-1-4"
       sodipodi:linespacing="125%"><tspan
         sodipodi:role="line"
         x="232.03748"
         y="260.09961"
         style="font-size:12px;text-align:center;text-anchor:middle"
         id="tspan15474">Bufor ramek czekających na</tspan><tspan
         sodipodi:role="line"
         x="232.03748"
         y="275.09961"
         style="font-size:12px;text-align:center;text-anchor:middle"
         id="tspan15478">retransmisję</tspan></text>
    <rect
       style="fill:#ffffff;fill-opacity:1;stroke:#000000;stroke-width:0.57216936;stroke-miterlimit:4;stroke-opacity:1;stroke-dasharray:none"
       id="rect13318-5-0"
       width="53.455391"
       height="36.274086"
       x="378.60278"
       y="245.60593" />
    <text
       xml:space="preserve"
       style="font-size:12px;font-style:normal;font-weight:normal;line-height:125%;letter-spacing:0px;word-spacing:0px;fill:#000000;fill-opacity:1;stroke:none;font-family:Sans"
       x="398.1861"
       y="268.51227"
       id="text13828-0-5"
       sodipodi:linespacing="125%"><tspan
         sodipodi:role="line"
         id="tspan13830-3-9"
         x="398.1861"
         y="268.51227"
         style="font-size:16px">N</tspan></text>
    <text
       xml:space="preserve"
       style="font-size:12px;font-style:normal;font-weight:normal;line-height:125%;letter-spacing:0px;word-spacing:0px;fill:#000000;fill-opacity:1;stroke:none;font-family:Sans"
       x="384.88159"
       y="240.31271"
       id="text15416-3"
       sodipodi:linespacing="125%"><tspan
         sodipodi:role="line"
         id="tspan15418-4"
         x="384.88159"
         y="240.31271"
         style="font-size:10px">Nadajnik</tspan></text>
    <path
       style="fill:none;stroke:#000000;stroke-width:0.8141349px;stroke-linecap:butt;stroke-linejoin:miter;stroke-opacity:1;marker-start:url(#DotM-6);marker-end:url(#Arrow1Lend-9)"
       d="m 437.60293,252.88143 c 0,0 29.51175,-3.71467 29.51175,-32.22807 0,-23.98276 -30.69222,-27.93099 -30.69222,-27.93099"
       id="path15480"
       inkscape:connector-curvature="0"
       sodipodi:nodetypes="csc" />
    <rect
       style="fill:#ffffff;fill-opacity:1;stroke:#000000;stroke-width:1.10866451;stroke-miterlimit:4;stroke-opacity:1;stroke-dasharray:none"
       id="rect13318-2-2"
       width="200.69781"
       height="36.274086"
       x="134.00648"
       y="307.92545" />
    <text
       xml:space="preserve"
       style="font-size:12px;font-style:normal;font-weight:normal;line-height:125%;letter-spacing:0px;word-spacing:0px;fill:#000000;fill-opacity:1;stroke:none;font-family:Sans"
       x="144.30409"
       y="330.83179"
       id="text13828-1-8"
       sodipodi:linespacing="125%"><tspan
         sodipodi:role="line"
         id="tspan13830-4-8"
         x="144.30409"
         y="330.83179"
         style="font-size:16px">Bufor nadawczy</tspan></text>
    <path
       style="fill:none;stroke:#000000;stroke-width:0.83294064px;stroke-linecap:butt;stroke-linejoin:miter;stroke-opacity:1;marker-start:url(#DotM-6);marker-end:url(#Arrow1Lend-9)"
       d="m 340.03119,326.29677 c 0,0 29.51175,-3.88826 29.51175,-33.73414 0,-25.10351 -30.69222,-29.23625 -30.69222,-29.23625"
       id="path15480-2"
       inkscape:connector-curvature="0"
       sodipodi:nodetypes="csc" />
    <text
       xml:space="preserve"
       style="font-size:12px;font-style:normal;font-weight:normal;line-height:125%;letter-spacing:0px;word-spacing:0px;fill:#000000;fill-opacity:1;stroke:none;font-family:Sans"
       x="339.91632"
       y="253.83661"
       id="text16135"
       sodipodi:linespacing="125%"><tspan
         sodipodi:role="line"
         id="tspan16137"
         x="339.91632"
         y="253.83661">Kopiuj</tspan></text>
    <path
       style="fill:none;stroke:#000000;stroke-width:0.83294064px;stroke-linecap:butt;stroke-linejoin:miter;stroke-opacity:1;marker-start:url(#DotM-6);marker-end:url(#Arrow1Lend-9)"
       d="m 125.6323,262.61568 c 0,0 -29.511744,3.88826 -29.511744,33.73414 0,25.10351 30.692214,29.23625 30.692214,29.23625"
       id="path15480-2-4"
       inkscape:connector-curvature="0"
       sodipodi:nodetypes="csc" />
    <text
       xml:space="preserve"
       style="font-size:12px;font-style:normal;font-weight:normal;text-align:end;line-height:125%;letter-spacing:0px;word-spacing:0px;text-anchor:end;fill:#000000;fill-opacity:1;stroke:none;font-family:Sans"
       x="99.65258"
       y="260.40259"
       id="text16169"
       sodipodi:linespacing="125%"><tspan
         sodipodi:role="line"
         id="tspan16171"
         x="99.65258"
         y="260.40259"
         style="font-size:9px">Pod jakimś</tspan><tspan
         sodipodi:role="line"
         x="99.65258"
         y="271.65259"
         id="tspan16175"
         style="font-size:9px">tam warunkiem</tspan></text>
    <path
       style="fill:none;stroke:#000000;stroke-width:0.83294064px;stroke-linecap:butt;stroke-linejoin:miter;stroke-opacity:1;marker-start:url(#DotM-6);marker-end:url(#Arrow1Lend-9)"
       d="m 227.16451,172.20397 c 0,0 6.62829,-11.44314 -4.83344,-33.22906 -7.62467,-14.49263 -30.18714,-12.06366 -30.18714,-12.06366"
       id="path15480-2-3"
       inkscape:connector-curvature="0"
       sodipodi:nodetypes="csc" />
    <text
       xml:space="preserve"
       style="font-size:12px;font-style:normal;font-weight:normal;line-height:125%;letter-spacing:0px;word-spacing:0px;fill:#000000;fill-opacity:1;stroke:none;font-family:Sans"
       x="225.02934"
       y="121.96717"
       id="text16135-0"
       sodipodi:linespacing="125%"><tspan
         sodipodi:role="line"
         id="tspan16137-7"
         x="225.02934"
         y="121.96717"
         style="font-size:10px">+1 jeśli ramka</tspan><tspan
         sodipodi:role="line"
         x="225.02934"
         y="134.46716"
         id="tspan16215"
         style="font-size:10px">nie jest przekłamana</tspan></text>
    <rect
       style="fill:#ffffff;fill-opacity:1;stroke:#000000;stroke-width:0.57216936;stroke-miterlimit:4;stroke-opacity:1;stroke-dasharray:none"
       id="rect13318-7"
       width="53.455391"
       height="36.274086"
       x="133.38148"
       y="370.35187" />
    <text
       xml:space="preserve"
       style="font-size:12px;font-style:normal;font-weight:normal;line-height:125%;letter-spacing:0px;word-spacing:0px;fill:#000000;fill-opacity:1;stroke:none;font-family:Sans"
       x="143.67911"
       y="393.25821"
       id="text13828-8"
       sodipodi:linespacing="125%"><tspan
         sodipodi:role="line"
         id="tspan13830-7"
         x="143.67911"
         y="393.25821"
         style="font-size:16px">N(S)</tspan></text>
    <path
       style="fill:none;stroke:#000000;stroke-width:1px;stroke-linecap:butt;stroke-linejoin:miter;stroke-opacity:1;marker-start:url(#Arrow1Lstart-4);marker-end:url(#DotM-6-4)"
       d="m 196.47467,390.20719 c 0,0 106.80696,-7.18895 155.05842,-21.2132 61.65892,-17.92112 57.14845,-19.97971 89.90358,-38.89088 12.94036,-7.47113 17.94543,-33.35287 14.6472,-48.48732 -1.55106,-7.11726 -14.14213,-12.62691 -14.14213,-12.62691"
       id="path16241"
       inkscape:connector-curvature="0"
       sodipodi:nodetypes="csssc" />
    <text
       xml:space="preserve"
       style="font-size:12px;font-style:normal;font-weight:normal;line-height:125%;letter-spacing:0px;word-spacing:0px;fill:#000000;fill-opacity:1;stroke:none;font-family:Sans"
       x="387.89856"
       y="345.2554"
       id="text17283"
       sodipodi:linespacing="125%"><tspan
         sodipodi:role="line"
         id="tspan17285"
         x="387.89856"
         y="345.2554">+1</tspan></text>
    <path
       style="fill:none;stroke:#000000;stroke-width:1px;stroke-linecap:butt;stroke-linejoin:miter;stroke-opacity:1;marker-start:url(#DotM);marker-end:url(#Arrow1Lend)"
       d="m 97.815161,387.49944 27.142849,0"
       id="path13832-2"
       inkscape:connector-curvature="0" />
    <text
       xml:space="preserve"
       style="font-size:12px;font-style:normal;font-weight:normal;line-height:125%;letter-spacing:0px;word-spacing:0px;fill:#000000;fill-opacity:1;stroke:none;font-family:Sans"
       x="65.017166"
       y="378.21375"
       id="text14758-1"
       sodipodi:linespacing="125%"><tspan
         sodipodi:role="line"
         id="tspan14760-1"
         x="65.017166"
         y="378.21375"
         style="font-size:10px;text-align:center;text-anchor:middle">Licznik</tspan><tspan
         sodipodi:role="line"
         x="65.017166"
         y="390.71375"
         id="tspan14762-3"
         style="font-size:10px;text-align:center;text-anchor:middle">ramek</tspan><tspan
         sodipodi:role="line"
         x="65.017166"
         y="403.21375"
         id="tspan14764-2"
         style="font-size:10px;text-align:center;text-anchor:middle">wysłanych</tspan></text>
  </g>
</svg>
