<?xml version="1.0" encoding="UTF-8" standalone="no"?>
<!-- Created with Inkscape (http://www.inkscape.org/) -->

<svg
   xmlns:dc="http://purl.org/dc/elements/1.1/"
   xmlns:cc="http://creativecommons.org/ns#"
   xmlns:rdf="http://www.w3.org/1999/02/22-rdf-syntax-ns#"
   xmlns:svg="http://www.w3.org/2000/svg"
   xmlns="http://www.w3.org/2000/svg"
   xmlns:sodipodi="http://sodipodi.sourceforge.net/DTD/sodipodi-0.dtd"
   xmlns:inkscape="http://www.inkscape.org/namespaces/inkscape"
   width="314.58319"
   height="228.98546"
   id="svg13310"
   version="1.1"
   inkscape:version="0.48.5 r10040"
   sodipodi:docname="image14.svg">
  <defs
     id="defs13312">
    <marker
       inkscape:stockid="StopL"
       orient="auto"
       refY="0"
       refX="0"
       id="StopL"
       style="overflow:visible">
      <path
         id="path4018"
         d="M 0,5.65 0,-5.65"
         style="fill:none;stroke:#000000;stroke-width:1pt"
         transform="scale(0.8,0.8)"
         inkscape:connector-curvature="0" />
    </marker>
    <marker
       inkscape:stockid="Arrow1Lstart"
       orient="auto"
       refY="0"
       refX="0"
       id="Arrow1Lstart"
       style="overflow:visible">
      <path
         id="path3849"
         d="M 0,0 5,-5 -12.5,0 5,5 0,0 z"
         style="fill-rule:evenodd;stroke:#000000;stroke-width:1pt"
         transform="matrix(0.8,0,0,0.8,10,0)"
         inkscape:connector-curvature="0" />
    </marker>
    <marker
       inkscape:stockid="DotM"
       orient="auto"
       refY="0"
       refX="0"
       id="DotM"
       style="overflow:visible">
      <path
         id="path3913"
         d="m -2.5,-1 c 0,2.76 -2.24,5 -5,5 -2.76,0 -5,-2.24 -5,-5 0,-2.76 2.24,-5 5,-5 2.76,0 5,2.24 5,5 z"
         style="fill-rule:evenodd;stroke:#000000;stroke-width:1pt"
         transform="matrix(0.4,0,0,0.4,2.96,0.4)"
         inkscape:connector-curvature="0" />
    </marker>
    <marker
       inkscape:stockid="Arrow1Lend"
       orient="auto"
       refY="0"
       refX="0"
       id="Arrow1Lend"
       style="overflow:visible">
      <path
         id="path3852"
         d="M 0,0 5,-5 -12.5,0 5,5 0,0 z"
         style="fill-rule:evenodd;stroke:#000000;stroke-width:1pt"
         transform="matrix(-0.8,0,0,-0.8,-10,0)"
         inkscape:connector-curvature="0" />
    </marker>
    <marker
       inkscape:stockid="DotS"
       orient="auto"
       refY="0"
       refX="0"
       id="DotS"
       style="overflow:visible">
      <path
         id="path3916"
         d="m -2.5,-1 c 0,2.76 -2.24,5 -5,5 -2.76,0 -5,-2.24 -5,-5 0,-2.76 2.24,-5 5,-5 2.76,0 5,2.24 5,5 z"
         style="fill-rule:evenodd;stroke:#000000;stroke-width:1pt"
         transform="matrix(0.2,0,0,0.2,1.48,0.2)"
         inkscape:connector-curvature="0" />
    </marker>
    <marker
       inkscape:stockid="DotM"
       orient="auto"
       refY="0"
       refX="0"
       id="DotM-6"
       style="overflow:visible">
      <path
         inkscape:connector-curvature="0"
         id="path3913-2"
         d="m -2.5,-1 c 0,2.76 -2.24,5 -5,5 -2.76,0 -5,-2.24 -5,-5 0,-2.76 2.24,-5 5,-5 2.76,0 5,2.24 5,5 z"
         style="fill-rule:evenodd;stroke:#000000;stroke-width:1pt"
         transform="matrix(0.4,0,0,0.4,2.96,0.4)" />
    </marker>
    <marker
       inkscape:stockid="Arrow1Lend"
       orient="auto"
       refY="0"
       refX="0"
       id="Arrow1Lend-9"
       style="overflow:visible">
      <path
         inkscape:connector-curvature="0"
         id="path3852-1"
         d="M 0,0 5,-5 -12.5,0 5,5 0,0 z"
         style="fill-rule:evenodd;stroke:#000000;stroke-width:1pt"
         transform="matrix(-0.8,0,0,-0.8,-10,0)" />
    </marker>
    <marker
       inkscape:stockid="Arrow1Lstart"
       orient="auto"
       refY="0"
       refX="0"
       id="Arrow1Lstart-4"
       style="overflow:visible">
      <path
         inkscape:connector-curvature="0"
         id="path3849-9"
         d="M 0,0 5,-5 -12.5,0 5,5 0,0 z"
         style="fill-rule:evenodd;stroke:#000000;stroke-width:1pt"
         transform="matrix(0.8,0,0,0.8,10,0)" />
    </marker>
    <marker
       inkscape:stockid="DotS"
       orient="auto"
       refY="0"
       refX="0"
       id="DotS-2"
       style="overflow:visible">
      <path
         inkscape:connector-curvature="0"
         id="path3916-9"
         d="m -2.5,-1 c 0,2.76 -2.24,5 -5,5 -2.76,0 -5,-2.24 -5,-5 0,-2.76 2.24,-5 5,-5 2.76,0 5,2.24 5,5 z"
         style="fill-rule:evenodd;stroke:#000000;stroke-width:1pt"
         transform="matrix(0.2,0,0,0.2,1.48,0.2)" />
    </marker>
    <marker
       inkscape:stockid="DotM"
       orient="auto"
       refY="0"
       refX="0"
       id="DotM-6-7"
       style="overflow:visible">
      <path
         inkscape:connector-curvature="0"
         id="path3913-2-5"
         d="m -2.5,-1 c 0,2.76 -2.24,5 -5,5 -2.76,0 -5,-2.24 -5,-5 0,-2.76 2.24,-5 5,-5 2.76,0 5,2.24 5,5 z"
         style="fill-rule:evenodd;stroke:#000000;stroke-width:1pt"
         transform="matrix(0.4,0,0,0.4,2.96,0.4)" />
    </marker>
    <marker
       inkscape:stockid="Arrow1Lend"
       orient="auto"
       refY="0"
       refX="0"
       id="Arrow1Lend-9-8"
       style="overflow:visible">
      <path
         inkscape:connector-curvature="0"
         id="path3852-1-1"
         d="M 0,0 5,-5 -12.5,0 5,5 0,0 z"
         style="fill-rule:evenodd;stroke:#000000;stroke-width:1pt"
         transform="matrix(-0.8,0,0,-0.8,-10,0)" />
    </marker>
    <marker
       inkscape:stockid="DotM"
       orient="auto"
       refY="0"
       refX="0"
       id="DotM-6-5"
       style="overflow:visible">
      <path
         inkscape:connector-curvature="0"
         id="path3913-2-7"
         d="m -2.5,-1 c 0,2.76 -2.24,5 -5,5 -2.76,0 -5,-2.24 -5,-5 0,-2.76 2.24,-5 5,-5 2.76,0 5,2.24 5,5 z"
         style="fill-rule:evenodd;stroke:#000000;stroke-width:1pt"
         transform="matrix(0.4,0,0,0.4,2.96,0.4)" />
    </marker>
    <marker
       inkscape:stockid="Arrow1Lend"
       orient="auto"
       refY="0"
       refX="0"
       id="Arrow1Lend-9-4"
       style="overflow:visible">
      <path
         inkscape:connector-curvature="0"
         id="path3852-1-4"
         d="M 0,0 5,-5 -12.5,0 5,5 0,0 z"
         style="fill-rule:evenodd;stroke:#000000;stroke-width:1pt"
         transform="matrix(-0.8,0,0,-0.8,-10,0)" />
    </marker>
    <marker
       inkscape:stockid="DotM"
       orient="auto"
       refY="0"
       refX="0"
       id="DotM-6-4"
       style="overflow:visible">
      <path
         inkscape:connector-curvature="0"
         id="path3913-2-4"
         d="m -2.5,-1 c 0,2.76 -2.24,5 -5,5 -2.76,0 -5,-2.24 -5,-5 0,-2.76 2.24,-5 5,-5 2.76,0 5,2.24 5,5 z"
         style="fill-rule:evenodd;stroke:#000000;stroke-width:1pt"
         transform="matrix(0.4,0,0,0.4,2.96,0.4)" />
    </marker>
    <marker
       inkscape:stockid="Arrow1Lend"
       orient="auto"
       refY="0"
       refX="0"
       id="Arrow1Lend-9-2"
       style="overflow:visible">
      <path
         inkscape:connector-curvature="0"
         id="path3852-1-9"
         d="M 0,0 5,-5 -12.5,0 5,5 0,0 z"
         style="fill-rule:evenodd;stroke:#000000;stroke-width:1pt"
         transform="matrix(-0.8,0,0,-0.8,-10,0)" />
    </marker>
    <marker
       inkscape:stockid="DotM"
       orient="auto"
       refY="0"
       refX="0"
       id="DotM-5"
       style="overflow:visible">
      <path
         inkscape:connector-curvature="0"
         id="path3913-3"
         d="m -2.5,-1 c 0,2.76 -2.24,5 -5,5 -2.76,0 -5,-2.24 -5,-5 0,-2.76 2.24,-5 5,-5 2.76,0 5,2.24 5,5 z"
         style="fill-rule:evenodd;stroke:#000000;stroke-width:1pt"
         transform="matrix(0.4,0,0,0.4,2.96,0.4)" />
    </marker>
    <marker
       inkscape:stockid="Arrow1Lend"
       orient="auto"
       refY="0"
       refX="0"
       id="Arrow1Lend-4"
       style="overflow:visible">
      <path
         inkscape:connector-curvature="0"
         id="path3852-3"
         d="M 0,0 5,-5 -12.5,0 5,5 0,0 z"
         style="fill-rule:evenodd;stroke:#000000;stroke-width:1pt"
         transform="matrix(-0.8,0,0,-0.8,-10,0)" />
    </marker>
  </defs>
  <sodipodi:namedview
     id="base"
     pagecolor="#ffffff"
     bordercolor="#666666"
     borderopacity="1.0"
     inkscape:pageopacity="0.0"
     inkscape:pageshadow="2"
     inkscape:zoom="1.4"
     inkscape:cx="186.68256"
     inkscape:cy="100.37332"
     inkscape:document-units="px"
     inkscape:current-layer="layer1"
     showgrid="false"
     fit-margin-left="5"
     fit-margin-top="5"
     fit-margin-right="5"
     fit-margin-bottom="5"
     inkscape:window-width="913"
     inkscape:window-height="984"
     inkscape:window-x="1"
     inkscape:window-y="10"
     inkscape:window-maximized="0" />
  <metadata
     id="metadata13315">
    <rdf:RDF>
      <cc:Work
         rdf:about="">
        <dc:format>image/svg+xml</dc:format>
        <dc:type
           rdf:resource="http://purl.org/dc/dcmitype/StillImage" />
        <dc:title></dc:title>
      </cc:Work>
    </rdf:RDF>
  </metadata>
  <g
     inkscape:label="Layer 1"
     inkscape:groupmode="layer"
     id="layer1"
     transform="translate(-40.383808,-108.767)">
    <text
       xml:space="preserve"
       style="font-size:12px;font-style:normal;font-weight:normal;line-height:125%;letter-spacing:0px;word-spacing:0px;fill:#000000;fill-opacity:1;stroke:none;font-family:Sans"
       x="52.937275"
       y="122.50333"
       id="text17398"
       sodipodi:linespacing="125%"><tspan
         sodipodi:role="line"
         id="tspan17400"
         x="52.937275"
         y="122.50333">Stacja nadawcza</tspan><tspan
         sodipodi:role="line"
         x="52.937275"
         y="137.50333"
         id="tspan17402">(SN)</tspan></text>
    <text
       sodipodi:linespacing="125%"
       id="text17404"
       y="122.50333"
       x="350.41232"
       style="font-size:12px;font-style:normal;font-weight:normal;line-height:125%;letter-spacing:0px;word-spacing:0px;fill:#000000;fill-opacity:1;stroke:none;font-family:Sans"
       xml:space="preserve"><tspan
         y="122.50333"
         x="350.41232"
         id="tspan17406"
         sodipodi:role="line"
         style="text-align:end;text-anchor:end">Stacja podrzędna</tspan><tspan
         id="tspan17408"
         y="137.50333"
         x="350.41232"
         sodipodi:role="line"
         style="text-align:end;text-anchor:end">(SP)</tspan></text>
    <path
       style="fill:none;stroke:#000000;stroke-width:0.36952597px;stroke-linecap:butt;stroke-linejoin:miter;stroke-opacity:1"
       d="m 144.35608,143.21146 0,188.33903"
       id="path17410"
       inkscape:connector-curvature="0" />
    <path
       inkscape:connector-curvature="0"
       id="path17412"
       d="m 256.48301,143.21146 0,189.3616"
       style="fill:none;stroke:#000000;stroke-width:0.35880825px;stroke-linecap:butt;stroke-linejoin:miter;stroke-opacity:1" />
    <text
       sodipodi:linespacing="125%"
       id="text17422"
       y="181.09218"
       x="84.252007"
       style="font-size:12px;font-style:normal;font-weight:normal;line-height:125%;letter-spacing:0px;word-spacing:0px;fill:#000000;fill-opacity:1;stroke:none;font-family:Sans"
       xml:space="preserve"><tspan
         y="181.09218"
         x="84.252007"
         id="tspan17424"
         sodipodi:role="line">I 5, 1</tspan></text>
    <text
       xml:space="preserve"
       style="font-size:12px;font-style:normal;font-weight:normal;line-height:125%;letter-spacing:0px;word-spacing:0px;fill:#000000;fill-opacity:1;stroke:none;font-family:Sans"
       x="84.252007"
       y="192.70894"
       id="text17426"
       sodipodi:linespacing="125%"><tspan
         sodipodi:role="line"
         id="tspan17428"
         x="84.252007"
         y="192.70894">I 6, 1</tspan></text>
    <text
       sodipodi:linespacing="125%"
       id="text17430"
       y="205.33585"
       x="84.252007"
       style="font-size:12px;font-style:normal;font-weight:normal;line-height:125%;letter-spacing:0px;word-spacing:0px;fill:#000000;fill-opacity:1;stroke:none;font-family:Sans"
       xml:space="preserve"><tspan
         y="205.33585"
         x="84.252007"
         id="tspan17432"
         sodipodi:role="line">I 7, 1, P</tspan></text>
    <text
       sodipodi:linespacing="125%"
       id="text17430-2"
       y="247.46625"
       x="266.83292"
       style="font-size:12px;font-style:normal;font-weight:normal;line-height:125%;letter-spacing:0px;word-spacing:0px;fill:#000000;fill-opacity:1;stroke:none;font-family:Sans"
       xml:space="preserve"><tspan
         y="247.46625"
         x="266.83292"
         id="tspan17432-6"
         sodipodi:role="line">RR, 0, F</tspan></text>
    <path
       style="fill:none;stroke:#000000;stroke-width:1px;stroke-linecap:butt;stroke-linejoin:miter;stroke-opacity:1;marker-start:url(#DotM-5);marker-end:url(#Arrow1Lend-4)"
       d="m 144.35608,176.04141 111.11678,38.89088"
       id="path18685"
       inkscape:connector-curvature="0" />
    <path
       inkscape:connector-curvature="0"
       id="path19111"
       d="m 144.35608,189.1734 111.11678,38.89087"
       style="fill:none;stroke:#000000;stroke-width:1px;stroke-linecap:butt;stroke-linejoin:miter;stroke-opacity:1;marker-start:url(#DotM-5);marker-end:url(#Arrow1Lend-4)" />
    <path
       style="fill:none;stroke:#000000;stroke-width:1px;stroke-linecap:butt;stroke-linejoin:miter;stroke-opacity:1;marker-start:url(#DotM-5);marker-end:url(#Arrow1Lend-4)"
       d="m 144.35608,202.81046 111.11678,38.89087"
       id="path19113"
       inkscape:connector-curvature="0" />
    <path
       inkscape:connector-curvature="0"
       id="path19119"
       d="M 256.18977,243.74194 145.07299,282.63281"
       style="fill:none;stroke:#000000;stroke-width:1px;stroke-linecap:butt;stroke-linejoin:miter;stroke-opacity:1;marker-start:url(#DotM-5);marker-end:url(#Arrow1Lend-4)" />
    <text
       xml:space="preserve"
       style="font-size:9px;font-style:normal;font-weight:normal;line-height:125%;letter-spacing:0px;word-spacing:0px;fill:#000000;fill-opacity:1;stroke:none;font-family:Sans"
       x="139.90613"
       y="52.720642"
       id="text20806"
       sodipodi:linespacing="125%"
       transform="translate(-47.350756,108.767)"><tspan
         sodipodi:role="line"
         id="tspan20808"
         x="139.90613"
         y="52.720642"
         style="font-size:12px">...</tspan></text>
    <text
       sodipodi:linespacing="125%"
       id="text20810"
       y="161.48764"
       x="274.38284"
       style="font-size:9px;font-style:normal;font-weight:normal;line-height:125%;letter-spacing:0px;word-spacing:0px;fill:#000000;fill-opacity:1;stroke:none;font-family:Sans"
       xml:space="preserve"><tspan
         style="font-size:12px"
         y="161.48764"
         x="274.38284"
         id="tspan20812"
         sodipodi:role="line">...</tspan></text>
    <path
       style="fill:none;stroke:#000000;stroke-width:1px;stroke-linecap:butt;stroke-linejoin:miter;stroke-opacity:1"
       d="m 237.38585,145.65468 17.17259,-1.51523 -14.64721,7.57615 19.1929,-1e-5 -13.13199,9.59645"
       id="path20814"
       inkscape:connector-curvature="0"
       transform="translate(-47.350756,108.767)"
       sodipodi:nodetypes="ccccc" />
    <text
       xml:space="preserve"
       style="font-size:9px;font-style:normal;font-weight:normal;line-height:125%;letter-spacing:0px;word-spacing:0px;fill:#000000;fill-opacity:1;stroke:none;font-family:Sans"
       x="189.02493"
       y="280.18057"
       id="text20816"
       sodipodi:linespacing="125%"><tspan
         sodipodi:role="line"
         id="tspan20818"
         x="189.02493"
         y="280.18057">Przekłamanie</tspan></text>
    <path
       style="fill:none;stroke:#000000;stroke-width:1px;stroke-linecap:butt;stroke-linejoin:miter;stroke-opacity:1;marker-start:url(#StopL);marker-end:url(#StopL)"
       d="m 123.74369,88.075982 0,122.228458"
       id="path20820"
       inkscape:connector-curvature="0"
       transform="translate(-47.350756,108.767)" />
    <path
       inkscape:connector-curvature="0"
       id="path21474"
       d="m 63.260951,183.20012 0,122.22846"
       style="fill:none;stroke:#000000;stroke-width:1px;stroke-linecap:butt;stroke-linejoin:miter;stroke-opacity:1;marker-start:url(#StopL);marker-end:url(#StopL)" />
    <path
       style="fill:none;stroke:#000000;stroke-width:1px;stroke-linecap:butt;stroke-linejoin:miter;stroke-opacity:1;marker-start:url(#StopL);marker-end:url(#StopL)"
       d="m 50.403808,170.70012 0,122.22846"
       id="path21476"
       inkscape:connector-curvature="0" />
    <text
       xml:space="preserve"
       style="font-size:9px;font-style:normal;font-weight:normal;line-height:125%;letter-spacing:0px;word-spacing:0px;fill:#000000;fill-opacity:1;stroke:none;font-family:Sans"
       x="137.85715"
       y="157.26794"
       id="text21478"
       sodipodi:linespacing="125%"
       transform="translate(-47.350756,108.767)"><tspan
         sodipodi:role="line"
         id="tspan21480"
         x="137.85715"
         y="157.26794">Pojawia się</tspan><tspan
         sodipodi:role="line"
         x="137.85715"
         y="168.51794"
         id="tspan21484">timeout i jest </tspan><tspan
         sodipodi:role="line"
         x="137.85715"
         y="179.76794"
         id="tspan21488">retransmisja</tspan><tspan
         sodipodi:role="line"
         x="137.85715"
         y="191.01794"
         id="tspan21490">wszystkich</tspan><tspan
         sodipodi:role="line"
         x="137.85715"
         y="202.26794"
         id="tspan21492">3 ramek.</tspan></text>
  </g>
</svg>
